{"title":"Melodifestivalen.2016.Deltavling.2.SWEDiSH.720p.WEBRiP.H264","uid":13540079,"size":1873770209,"categoryP":"video","categoryS":"hd___tv_shows","magnet":"?xt=urn:btih:beb617a27575e8cdbe3127ba3e222fa357688736&amp;dn=Melodifestivalen.2016.Deltavling.2.SWEDiSH.720p.WEBRiP.H264&amp;tr=udp%3A%2F%2Ftracker.leechers-paradise.org%3A6969&amp;tr=udp%3A%2F%2Fzer0day.ch%3A1337&amp;tr=udp%3A%2F%2Fopen.demonii.com%3A1337&amp;tr=udp%3A%2F%2Ftracker.coppersurfer.tk%3A6969&amp;tr=udp%3A%2F%2Fexodus.desync.com%3A6969","seeders":1,"leechers":0,"uploader":null,"files":1,"time":1455475869,"description":"Källa: SVT play\r\n\r\n\r\nStartfält:\r\n\r\n01. David Lindgren - We Are Your Tomorrow\r\n02. Victor och Natten - 100%\r\n03. Molly Pettersson Hammar - Hunger\r\n04. Isa - I Will Wait\r\n05. Krista Siegfrids - Faller\r\n06. Patrik, Tommy &amp; Uno - Håll mitt hjärta hårt\r\n07. Wiktoria - Save Me\r\n\r\n\r\nMediaInfo:\r\n\r\nGeneral\r\nComplete name                            : Melodifestivalen.2016.Deltavling.2.SWEDiSH.720p.WEBRiP.H264.mp4\r\nFormat                                   : MPEG-4\r\nFormat profile                           : Base Media\r\nCodec ID                                 : isom\r\nFile size                                : 1.75 GiB\r\nDuration                                 : 1h 29mn\r\nOverall bit rate mode                    : Variable\r\nOverall bit rate                         : 2 801 Kbps\r\nWriting application                      : Lavf57.14.100\r\n\r\nVideo\r\nID                                       : 1\r\nFormat                                   : AVC\r\nFormat/Info                              : Advanced Video Codec\r\nFormat profile                           :   \r\nFormat settings, CABAC                   : Yes\r\nFormat settings, ReFrames                : 1 frame\r\nCodec ID                                 : avc1\r\nCodec ID/Info                            : Advanced Video Coding\r\nDuration                                 : 1h 29mn\r\nBit rate                                 : 2 701 Kbps\r\nWidth                                    : 1 280 pixels\r\nHeight                                   : 720 pixels\r\nDisplay aspect ratio                     : 16:9\r\nFrame rate                               : 25.000 fps\r\nStandard                                 : PAL\r\nColor space                              : YUV\r\nChroma subsampling                       : 4:2:0\r\nBit depth                                : 8 bits\r\nScan type                                : Progressive\r\nBits/(Pixel*Frame)                       : 0.117\r\nStream size                              : 1.68 GiB (96%)\r\nColor range                              : Full\r\nColor primaries                          : BT.601 PAL\r\nTransfer characteristics                 : BT.470 System B, BT.470 System G\r\nMatrix coefficients                      : BT.601\r\n\r\nAudio\r\nID                                       : 2\r\nFormat                                   : AAC\r\nFormat/Info                              : Advanced Audio Codec\r\nFormat profile                           : LC\r\nCodec ID                                 : 40\r\nDuration                                 : 1h 29mn\r\nBit rate mode                            : Variable\r\nBit rate                                 : 96.0 Kbps\r\nMaximum bit rate                         : 98.3 Kbps\r\nChannel(s)                               : 2 channels\r\nChannel positions                        : Front: L R\r\nSampling rate                            : 48.0 KHz\r\nCompression mode                         : Lossy\r\nStream size                              : 61.3 MiB (3%)","torrent":{"xt":"urn:btih:beb617a27575e8cdbe3127ba3e222fa357688736","amp;dn":"Melodifestivalen.2016.Deltavling.2.SWEDiSH.720p.WEBRiP.H264","amp;tr":["udp%3A%2F%2Ftracker.leechers-paradise.org%3A6969","udp%3A%2F%2Fzer0day.ch%3A1337","udp%3A%2F%2Fopen.demonii.com%3A1337","udp%3A%2F%2Ftracker.coppersurfer.tk%3A6969","udp%3A%2F%2Fexodus.desync.com%3A6969"],"infoHash":"beb617a27575e8cdbe3127ba3e222fa357688736","infoHashBuffer":{"type":"Buffer","data":[190,182,23,162,117,117,232,205,190,49,39,186,62,34,47,163,87,104,135,54]},"announce":[],"urlList":[]}}